<svg width="99" height="30" viewBox="0 0 99 30" fill="none" xmlns="http://www.w3.org/2000/svg">
    <path
      d="M0.402617 29.4758V27.1873L6.35711 19.9967C8.07353 17.9624 9.13305 16.9311 9.13305 15.7586C9.15424 14.7203 8.33488 13.8515 7.28949 13.8303C7.19766 13.8303 7.10584 13.8303 7.01401 13.8444C5.6437 13.8444 4.78196 14.7273 4.64069 16.1895H0C0.0847615 12.3257 2.52165 9.60632 6.9575 9.60632C11.3934 9.60632 14.1269 12.3187 14.1269 15.5396C14.1269 17.4891 12.8979 19.0713 10.1149 22.3841L7.4802 25.5344H14.2682V29.4617L0.402617 29.4758Z"
      fill="white"
    />
    <path
      d="M17.3902 29.4758V25.5485H22.264V15.0946L17.6798 16.3872V12.1986L24.0369 9.99482H26.9047V25.5485H31.4606V29.4758H17.3902Z"
      fill="white"
    />
    <path
      d="M35.5645 0.727536L35.2113 0.805234V29.4758H38.8419V0L38.291 0.120079L35.5645 0.727536Z"
      fill="white"
    />
    <path
      d="M45.6299 10.6658L45.2768 10.7435V29.4758H48.9074V9.93827L48.3564 10.0584L45.6299 10.6658Z"
      fill="white"
    />
    <path
      d="M48.9074 8.76579V4.67605H45.2768V9.56396L45.8277 9.44388L48.9074 8.76579Z"
      fill="white"
    />
    <path
      d="M69.8999 10.0513L69.7728 10.3126L63.0484 24.4819L56.324 10.3126L56.1968 10.0513H52.2696L52.5804 10.6941L61.3955 29.2144L61.5227 29.4758H64.6165L64.7366 29.2144L73.5588 10.6941L73.8696 10.0513H69.8999Z"
      fill="white"
    />
    <path
      d="M78.5244 21.2963H94.2406L94.2901 20.8937C94.3254 20.4911 94.3395 20.0885 94.3324 19.6859C94.2901 13.8232 90.3063 9.57099 84.8603 9.57099C79.4003 9.46504 74.8867 13.8091 74.7879 19.2691C74.7879 19.4386 74.7879 19.6082 74.7879 19.7777C74.7879 20.2933 74.8302 20.8019 74.9009 21.3105L78.5244 21.2963ZM84.7826 12.8202C87.9471 12.8202 90.1438 14.8827 90.61 18.2449H78.5315C79.0401 15.4902 81.1026 12.8414 84.7615 12.8414L84.7826 12.8202Z"
      fill="#00C899"
    />
    <path
      d="M89.9955 23.9522L89.9037 24.1358C89.1338 25.7604 87.2761 26.7281 84.9593 26.7281C82.8049 26.8058 80.7636 25.7533 79.5698 23.9522H75.6355C77.1895 27.6746 80.8483 30.0691 84.8816 29.9985C89.1196 29.9985 92.5807 27.83 93.725 24.4819L93.9087 23.9522H89.9955Z"
      fill="#00C899"
    />
    <path d="M98.182 26.4668H95.1518V29.497H98.182V26.4668Z" fill="#00C899" />
  </svg>